<svg width="114" height="114" viewBox="0 0 114 114" fill="none" xmlns="http://www.w3.org/2000/svg">
<path d="M79.8257 51.4839C81.0117 51.4839 82.126 51.0224 82.9644 50.1839L89.0193 44.129H108.484C111.525 44.129 114 41.6541 114 38.6129V12.871C114 9.82974 111.525 7.35484 108.484 7.35484H69.871V3.67742C69.871 1.64932 68.2216 0 66.1936 0H15.4709C14.489 0 13.566 0.382452 12.871 1.07748L1.07748 12.871C0.382452 13.566 0 14.489 0 15.4709V110.323C0 112.351 1.64932 114 3.67742 114H66.1936C68.2216 114 69.871 112.351 69.871 110.323V95.6129H87.4968L93.5517 101.668C94.3902 102.506 95.5044 102.968 96.6904 102.968C99.1377 102.968 101.129 100.976 101.129 98.5291V95.6129H108.484C111.525 95.6129 114 93.138 114 90.0968V64.3548C114 61.3136 111.527 58.8387 108.488 58.8387H69.871V44.129H75.3871V47.0452C75.3871 49.4925 77.3784 51.4839 79.8257 51.4839ZM12.871 6.27736V12.871H6.27736L12.871 6.27736ZM3.67742 110.323V16.5484H16.5484V3.67742H66.1936V7.69316C64.0588 8.45439 62.5161 10.477 62.5161 12.871V38.6129C62.5161 41.0069 64.0588 43.0295 66.1936 43.7907V59.1789C64.0588 59.9401 62.5161 61.9627 62.5161 64.3567V90.0986C62.5161 92.4926 64.0588 94.5152 66.1936 95.2764V110.323H3.67742ZM110.323 64.3548V90.0968C110.323 91.1099 109.497 91.9355 108.484 91.9355H97.4516V98.5291C97.4516 99.1506 96.5893 99.5055 96.1516 99.0678L89.0193 91.9355H68.0323C67.0191 91.9355 66.1936 91.1099 66.1936 90.0968V64.3548C66.1936 63.3417 67.0191 62.5161 68.0323 62.5161H108.488C109.501 62.5161 110.323 63.3417 110.323 64.3548ZM68.0323 40.4516C67.0191 40.4516 66.1936 39.626 66.1936 38.6129V12.871C66.1936 11.8578 67.0191 11.0323 68.0323 11.0323H108.484C109.497 11.0323 110.323 11.8578 110.323 12.871V38.6129C110.323 39.626 109.497 40.4516 108.484 40.4516H87.4968L80.3645 47.584C79.925 48.0216 79.0645 47.6667 79.0645 47.0452V40.4516H68.0323Z" fill="black"/>
<path d="M104.205 17.909L101.73 15.1877L82.8026 32.3962L78.5258 28.1194L75.9258 30.7193L82.6813 37.4747L104.205 17.909Z" fill="black"/>
<path d="M47.8065 62.5161H7.35484V77.2258H47.8065V62.5161ZM44.129 73.5484H11.0323V66.1935H44.129V73.5484Z" fill="black"/>
<path d="M7.35484 80.9032H47.8065V84.5806H7.35484V80.9032Z" fill="black"/>
<path d="M7.35484 88.2581H55.1613V91.9355H7.35484V88.2581Z" fill="black"/>
<path d="M7.35484 95.6129H55.1613V99.2903H7.35484V95.6129Z" fill="black"/>
<path d="M7.35484 102.968H18.3871V106.645H7.35484V102.968Z" fill="black"/>
<path d="M22.0645 102.968H33.0968V106.645H22.0645V102.968Z" fill="black"/>
<path d="M36.7742 102.968H47.8065V106.645H36.7742V102.968Z" fill="black"/>
<path d="M34.9355 11.0323C21.7556 11.0323 11.0323 21.7556 11.0323 34.9355C11.0323 48.1154 21.7556 58.8387 34.9355 58.8387C48.1154 58.8387 58.8387 48.1154 58.8387 34.9355C58.8387 21.7556 48.1154 11.0323 34.9355 11.0323ZM34.9355 55.1613C29.1822 55.1613 23.997 52.736 20.3104 48.8674C21.6765 46.5506 23.5447 44.6016 25.7658 43.1766L34.9355 52.2285L44.1051 43.1766C46.3263 44.6016 48.1944 46.5506 49.5606 48.8674C45.874 52.736 40.6888 55.1613 34.9355 55.1613ZM27.5806 29.4194C27.5806 25.3632 30.8793 22.0645 34.9355 22.0645C38.9917 22.0645 42.2903 25.3632 42.2903 29.4194C42.2903 33.4755 38.9917 36.7742 34.9355 36.7742C30.8793 36.7742 27.5806 33.4755 27.5806 29.4194ZM29.2778 41.4758C31.076 40.8341 32.9791 40.4516 34.9355 40.4516C36.8919 40.4516 38.7949 40.8341 40.5932 41.4758L34.9355 47.0618L29.2778 41.4758ZM51.9895 45.7636C49.5109 42.1671 45.9365 39.4532 41.8656 37.9914C44.3644 35.967 45.9677 32.878 45.9677 29.4194C45.9677 23.3351 41.0198 18.3871 34.9355 18.3871C28.8512 18.3871 23.9032 23.3351 23.9032 29.4194C23.9032 32.878 25.5066 35.967 28.0054 37.9914C23.9345 39.4532 20.36 42.1671 17.8815 45.7636C15.8846 42.6286 14.7097 38.92 14.7097 34.9355C14.7097 23.7837 23.7837 14.7097 34.9355 14.7097C46.0873 14.7097 55.1613 23.7837 55.1613 34.9355C55.1613 38.92 53.9864 42.6286 51.9895 45.7636Z" fill="black"/>
<path d="M80.3645 87.7193L88.2581 79.8257L96.1516 87.7193L98.7516 85.1194L90.858 77.2258L98.7516 69.3322L96.1516 66.7323L88.2581 74.6259L80.3645 66.7323L77.7645 69.3322L85.6581 77.2258L77.7645 85.1194L80.3645 87.7193Z" fill="black"/>
</svg>
